<svg width="586" height="150" viewBox="0 0 586 150" fill="none" xmlns="http://www.w3.org/2000/svg">
<path d="M207.4 53.2806V109.679H220.643V53.2806H241.387V42.5381H186.749V53.2806H207.4Z" fill="black"/>
<path d="M240.493 125.885H245.864C258.273 125.885 260.866 123.662 266.701 108.197L284.944 59.8557H271.979L260.403 95.7874L249.105 59.8557H235.122L254.199 109.493L253.643 110.882C251.513 116.161 249.568 116.068 245.308 116.068H240.493V125.885Z" fill="black"/>
<path d="M290.694 125.885H303.474V103.381C306.622 108.845 312.549 110.882 317.735 110.882C329.589 110.882 339.498 100.696 339.498 84.7671C339.498 69.1164 329.867 58.7444 317.828 58.7444C311.531 58.7444 306.159 61.6152 303.474 66.2456V59.8557H290.694V125.885ZM326.07 84.8597C326.07 94.5835 321.254 101.066 314.679 101.066C307.641 101.066 303.011 94.9539 303.011 84.7671C303.011 74.7655 307.641 68.5608 314.679 68.5608C321.254 68.5608 326.07 75.1359 326.07 84.8597Z" fill="black"/>
<path d="M357.929 88.2862H394.694C395.25 70.6908 385.619 58.7444 370.246 58.7444C355.521 58.7444 345.242 69.7647 345.242 84.5819C345.242 98.9361 354.595 110.882 370.616 110.882C384.137 110.882 391.453 102.64 394.139 95.2318H380.988C378.395 99.5843 374.413 100.973 370.524 100.973C364.504 100.973 358.577 96.8061 357.929 88.2862ZM358.114 79.4885C359.133 71.1538 365.338 68.0978 370.153 68.0978C375.525 68.0978 381.452 71.0612 381.729 79.4885H358.114Z" fill="black"/>
<path d="M405.487 57.0775V59.8557H398.449V68.6534H405.487V109.679H418.267V68.6534H428.268V59.8557H418.267V57.4479C418.267 52.7249 419.471 51.9841 425.768 51.9841H428.268V42.5381H423.916C411.414 42.5381 405.487 44.4828 405.487 57.0775Z" fill="black"/>
<path d="M447.885 110.882C455.386 110.882 460.665 108.66 464.184 103.474C464.369 105.882 464.647 108.104 465.018 109.679H476.779C475.853 105.511 475.297 101.066 475.297 93.1944C475.297 88.6566 475.482 82.0815 475.482 80.5072C475.482 63.6526 465.851 58.5592 453.997 58.5592C441.217 58.5592 433.068 65.7826 432.142 75.599H444.088C444.366 70.1351 448.441 67.5421 453.349 67.5421C458.535 67.5421 462.702 70.2277 462.702 77.9142V78.7476C443.162 80.9702 429.919 84.4893 429.919 96.2505C429.919 105.326 438.347 110.882 447.885 110.882ZM463.073 86.8971V90.6014C463.073 97.8248 459.646 102.177 451.682 102.177C445.94 102.177 443.07 99.2139 443.07 95.6022C443.07 90.0458 448.811 88.3788 463.073 86.8971Z" fill="black"/>
<path d="M530.487 76.8955C528.82 64.4861 518.263 58.7444 507.891 58.7444C492.981 58.7444 482.887 69.6721 482.887 84.8597C482.887 99.8621 492.426 110.882 507.336 110.882C517.615 110.882 527.987 106.345 530.95 92.7314H518.726C517.059 98.7509 512.336 100.973 507.984 100.973C500.946 100.973 495.945 95.1392 495.945 84.6745C495.945 74.3025 501.223 68.6534 507.891 68.6534C512.707 68.6534 517.337 72.1725 518.263 76.8955H530.487Z" fill="black"/>
<path d="M548.48 88.2862H585.245C585.801 70.6908 576.17 58.7444 560.797 58.7444C546.072 58.7444 535.793 69.7647 535.793 84.5819C535.793 98.9361 545.146 110.882 561.167 110.882C574.688 110.882 582.004 102.64 584.69 95.2318H571.539C568.946 99.5843 564.964 100.973 561.075 100.973C555.055 100.973 549.128 96.8061 548.48 88.2862ZM548.665 79.4885C549.684 71.1538 555.889 68.0978 560.704 68.0978C566.076 68.0978 572.002 71.0612 572.28 79.4885H548.665Z" fill="black"/>
<path fill-rule="evenodd" clip-rule="evenodd" d="M150 0H0V150H150V0ZM53.2314 36.2847H38.7153V108.865H53.2314V36.2847Z" fill="#FD243E"/>
</svg>
